<mxfile host="app.diagrams.net" modified="2024-06-03T19:10:08.082Z" agent="Mozilla/5.0 (Windows NT 10.0; Win64; x64) AppleWebKit/537.36 (KHTML, like Gecko) Chrome/125.0.0.0 Safari/537.36" etag="hdooZuvY44RNJn23_qJo" version="24.4.13" type="device">
  <diagram name="PaginÄƒ-1" id="oI1xn0vPyFax2rwIqvwE">
    <mxGraphModel dx="1290" dy="522" grid="1" gridSize="10" guides="1" tooltips="1" connect="1" arrows="1" fold="1" page="1" pageScale="1" pageWidth="827" pageHeight="1169" math="0" shadow="0">
      <root>
        <mxCell id="0" />
        <mxCell id="1" parent="0" />
        <mxCell id="ALUaBosDsO_dmnS0878M-1" value="&lt;br&gt;&lt;span style=&quot;color: rgb(0, 0, 0); font-family: Helvetica; font-size: 12px; font-style: normal; font-variant-ligatures: normal; font-variant-caps: normal; font-weight: 400; letter-spacing: normal; orphans: 2; text-align: center; text-indent: 0px; text-transform: none; widows: 2; word-spacing: 0px; -webkit-text-stroke-width: 0px; white-space: normal; background-color: rgb(251, 251, 251); text-decoration-thickness: initial; text-decoration-style: initial; text-decoration-color: initial; display: inline !important; float: none;&quot;&gt;English Feature Vectors Dataset&lt;/span&gt;&lt;div&gt;&lt;br/&gt;&lt;/div&gt;" style="strokeWidth=2;html=1;shape=mxgraph.flowchart.database;whiteSpace=wrap;" parent="1" vertex="1">
          <mxGeometry x="80" y="320" width="120" height="100" as="geometry" />
        </mxCell>
        <mxCell id="ALUaBosDsO_dmnS0878M-3" value="&lt;br&gt;&lt;span style=&quot;color: rgb(0, 0, 0); font-family: Helvetica; font-size: 12px; font-style: normal; font-variant-ligatures: normal; font-variant-caps: normal; font-weight: 400; letter-spacing: normal; orphans: 2; text-align: center; text-indent: 0px; text-transform: none; widows: 2; word-spacing: 0px; -webkit-text-stroke-width: 0px; white-space: normal; background-color: rgb(251, 251, 251); text-decoration-thickness: initial; text-decoration-style: initial; text-decoration-color: initial; display: inline !important; float: none;&quot;&gt;Romanian Feature Vectors Dataset&lt;/span&gt;&lt;div&gt;&lt;br&gt;&lt;/div&gt;" style="strokeWidth=2;html=1;shape=mxgraph.flowchart.database;whiteSpace=wrap;" parent="1" vertex="1">
          <mxGeometry x="70" y="680" width="120" height="100" as="geometry" />
        </mxCell>
        <mxCell id="ALUaBosDsO_dmnS0878M-4" value="" style="endArrow=classic;html=1;rounded=0;exitX=1;exitY=0.5;exitDx=0;exitDy=0;exitPerimeter=0;entryX=0;entryY=0.5;entryDx=0;entryDy=0;" parent="1" source="ALUaBosDsO_dmnS0878M-1" target="ALUaBosDsO_dmnS0878M-6" edge="1">
          <mxGeometry width="50" height="50" relative="1" as="geometry">
            <mxPoint x="200" y="350" as="sourcePoint" />
            <mxPoint x="290" y="280" as="targetPoint" />
          </mxGeometry>
        </mxCell>
        <mxCell id="ALUaBosDsO_dmnS0878M-5" value="" style="endArrow=classic;html=1;rounded=0;exitX=1;exitY=0.7;exitDx=0;exitDy=0;exitPerimeter=0;" parent="1" source="ALUaBosDsO_dmnS0878M-1" edge="1">
          <mxGeometry width="50" height="50" relative="1" as="geometry">
            <mxPoint x="390" y="380" as="sourcePoint" />
            <mxPoint x="290" y="460" as="targetPoint" />
          </mxGeometry>
        </mxCell>
        <mxCell id="ALUaBosDsO_dmnS0878M-6" value="Train Dataset&lt;div&gt;with Labels&lt;/div&gt;" style="ellipse;whiteSpace=wrap;html=1;aspect=fixed;" parent="1" vertex="1">
          <mxGeometry x="290" y="220" width="100" height="100" as="geometry" />
        </mxCell>
        <mxCell id="ALUaBosDsO_dmnS0878M-7" value="Split dataset into&amp;nbsp;&lt;div&gt;75/25 train/test&lt;/div&gt;" style="text;html=1;align=center;verticalAlign=middle;resizable=0;points=[];autosize=1;strokeColor=none;fillColor=none;" parent="1" vertex="1">
          <mxGeometry x="200" y="360" width="120" height="40" as="geometry" />
        </mxCell>
        <mxCell id="ALUaBosDsO_dmnS0878M-8" value="Test Dataset&lt;div&gt;with no Labels&lt;/div&gt;" style="ellipse;whiteSpace=wrap;html=1;aspect=fixed;" parent="1" vertex="1">
          <mxGeometry x="290" y="410" width="100" height="100" as="geometry" />
        </mxCell>
        <mxCell id="ALUaBosDsO_dmnS0878M-9" value="" style="endArrow=classic;html=1;rounded=0;exitX=1;exitY=0.5;exitDx=0;exitDy=0;exitPerimeter=0;entryX=0;entryY=0.5;entryDx=0;entryDy=0;" parent="1" target="ALUaBosDsO_dmnS0878M-11" edge="1">
          <mxGeometry width="50" height="50" relative="1" as="geometry">
            <mxPoint x="190" y="725" as="sourcePoint" />
            <mxPoint x="280" y="635" as="targetPoint" />
          </mxGeometry>
        </mxCell>
        <mxCell id="ALUaBosDsO_dmnS0878M-10" value="" style="endArrow=classic;html=1;rounded=0;exitX=1;exitY=0.7;exitDx=0;exitDy=0;exitPerimeter=0;" parent="1" edge="1">
          <mxGeometry width="50" height="50" relative="1" as="geometry">
            <mxPoint x="190" y="745" as="sourcePoint" />
            <mxPoint x="280" y="815" as="targetPoint" />
          </mxGeometry>
        </mxCell>
        <mxCell id="ALUaBosDsO_dmnS0878M-11" value="Train Dataset" style="ellipse;whiteSpace=wrap;html=1;aspect=fixed;" parent="1" vertex="1">
          <mxGeometry x="280" y="595" width="100" height="100" as="geometry" />
        </mxCell>
        <mxCell id="ALUaBosDsO_dmnS0878M-12" value="Split dataset into&amp;nbsp;&lt;div&gt;75/25 train/test&lt;/div&gt;" style="text;html=1;align=center;verticalAlign=middle;resizable=0;points=[];autosize=1;strokeColor=none;fillColor=none;" parent="1" vertex="1">
          <mxGeometry x="190" y="715" width="120" height="40" as="geometry" />
        </mxCell>
        <mxCell id="ALUaBosDsO_dmnS0878M-13" value="Test Dataset" style="ellipse;whiteSpace=wrap;html=1;aspect=fixed;" parent="1" vertex="1">
          <mxGeometry x="280" y="765" width="100" height="100" as="geometry" />
        </mxCell>
        <mxCell id="ALUaBosDsO_dmnS0878M-14" value="Train" style="endArrow=classic;html=1;rounded=0;exitX=1;exitY=0.5;exitDx=0;exitDy=0;entryX=0;entryY=0.5;entryDx=0;entryDy=0;" parent="1" source="ALUaBosDsO_dmnS0878M-6" target="ALUaBosDsO_dmnS0878M-18" edge="1">
          <mxGeometry x="-0.0667" y="10" width="50" height="50" relative="1" as="geometry">
            <mxPoint x="390" y="380" as="sourcePoint" />
            <mxPoint x="540" y="270" as="targetPoint" />
            <mxPoint as="offset" />
          </mxGeometry>
        </mxCell>
        <mxCell id="ALUaBosDsO_dmnS0878M-17" value="Predict" style="endArrow=classic;html=1;rounded=0;entryX=0.357;entryY=0.053;entryDx=0;entryDy=0;entryPerimeter=0;" parent="1" source="ALUaBosDsO_dmnS0878M-18" target="dyJtSoeSL_ZsTX8n-u71-3" edge="1">
          <mxGeometry x="0.7274" y="16" width="50" height="50" relative="1" as="geometry">
            <mxPoint x="596" y="300" as="sourcePoint" />
            <mxPoint x="890" y="320" as="targetPoint" />
            <mxPoint as="offset" />
          </mxGeometry>
        </mxCell>
        <mxCell id="ALUaBosDsO_dmnS0878M-18" value="Random Forest&amp;nbsp;&lt;div&gt;Classifier&lt;/div&gt;" style="rounded=1;whiteSpace=wrap;html=1;" parent="1" vertex="1">
          <mxGeometry x="650" y="140" width="120" height="50" as="geometry" />
        </mxCell>
        <mxCell id="ALUaBosDsO_dmnS0878M-20" value="Train with Hyperparameters Tuning" style="endArrow=classic;html=1;rounded=0;exitX=0.99;exitY=0.74;exitDx=0;exitDy=0;exitPerimeter=0;" parent="1" source="ALUaBosDsO_dmnS0878M-6" edge="1">
          <mxGeometry x="-0.0332" y="14" width="50" height="50" relative="1" as="geometry">
            <mxPoint x="380" y="470" as="sourcePoint" />
            <mxPoint x="660" y="294" as="targetPoint" />
            <mxPoint as="offset" />
          </mxGeometry>
        </mxCell>
        <mxCell id="ALUaBosDsO_dmnS0878M-21" value="Random Forest&amp;nbsp;&lt;div&gt;Classifier with Hyperparameters&lt;/div&gt;" style="rounded=1;whiteSpace=wrap;html=1;" parent="1" vertex="1">
          <mxGeometry x="660" y="260" width="120" height="60" as="geometry" />
        </mxCell>
        <mxCell id="ALUaBosDsO_dmnS0878M-22" value="Predict" style="endArrow=classic;html=1;rounded=0;exitX=0.5;exitY=1;exitDx=0;exitDy=0;entryX=0;entryY=0.25;entryDx=0;entryDy=0;" parent="1" source="ALUaBosDsO_dmnS0878M-21" target="dyJtSoeSL_ZsTX8n-u71-3" edge="1">
          <mxGeometry x="0.1632" y="-19" width="50" height="50" relative="1" as="geometry">
            <mxPoint x="560" y="250" as="sourcePoint" />
            <mxPoint x="850" y="360" as="targetPoint" />
            <Array as="points">
              <mxPoint x="790" y="340" />
            </Array>
            <mxPoint as="offset" />
          </mxGeometry>
        </mxCell>
        <mxCell id="ALUaBosDsO_dmnS0878M-23" value="&lt;div&gt;Top Performance Achieved by English Random Forest Classifier&lt;/div&gt;" style="rounded=1;whiteSpace=wrap;html=1;" parent="1" vertex="1">
          <mxGeometry x="840" y="510" width="120" height="60" as="geometry" />
        </mxCell>
        <mxCell id="ALUaBosDsO_dmnS0878M-24" value="Evaluate Classifiers" style="endArrow=classic;html=1;rounded=0;exitX=0.5;exitY=1;exitDx=0;exitDy=0;entryX=0.5;entryY=0;entryDx=0;entryDy=0;" parent="1" source="dyJtSoeSL_ZsTX8n-u71-3" target="ALUaBosDsO_dmnS0878M-23" edge="1">
          <mxGeometry x="0.7094" y="-59" width="50" height="50" relative="1" as="geometry">
            <mxPoint x="890" y="400" as="sourcePoint" />
            <mxPoint x="430" y="420" as="targetPoint" />
            <mxPoint as="offset" />
          </mxGeometry>
        </mxCell>
        <mxCell id="ALUaBosDsO_dmnS0878M-25" value="Train with Hyperparameters Found&lt;div&gt;for Top Performance Achieved by English&lt;/div&gt;&lt;div&gt;Random Forest Classifier&lt;/div&gt;" style="endArrow=classic;html=1;rounded=0;exitX=1.04;exitY=0.39;exitDx=0;exitDy=0;exitPerimeter=0;" parent="1" edge="1">
          <mxGeometry x="-0.0137" y="32" width="50" height="50" relative="1" as="geometry">
            <mxPoint x="384" y="635" as="sourcePoint" />
            <mxPoint x="580" y="631" as="targetPoint" />
            <mxPoint as="offset" />
          </mxGeometry>
        </mxCell>
        <mxCell id="ALUaBosDsO_dmnS0878M-26" value="Random Forest Classifier" style="rounded=1;whiteSpace=wrap;html=1;" parent="1" vertex="1">
          <mxGeometry x="580" y="610" width="120" height="60" as="geometry" />
        </mxCell>
        <mxCell id="ALUaBosDsO_dmnS0878M-27" value="Predict" style="endArrow=classic;html=1;rounded=0;exitX=0.5;exitY=1;exitDx=0;exitDy=0;entryX=0;entryY=0.5;entryDx=0;entryDy=0;" parent="1" source="ALUaBosDsO_dmnS0878M-26" target="dyJtSoeSL_ZsTX8n-u71-2" edge="1">
          <mxGeometry x="0.3626" y="-15" width="50" height="50" relative="1" as="geometry">
            <mxPoint x="380" y="570" as="sourcePoint" />
            <mxPoint x="850" y="715" as="targetPoint" />
            <mxPoint as="offset" />
          </mxGeometry>
        </mxCell>
        <mxCell id="ALUaBosDsO_dmnS0878M-28" value="&lt;div&gt;Top Performance Achieved by Romanian Random Forest Classifier&lt;/div&gt;" style="rounded=1;whiteSpace=wrap;html=1;" parent="1" vertex="1">
          <mxGeometry x="830" y="865" width="120" height="60" as="geometry" />
        </mxCell>
        <mxCell id="ALUaBosDsO_dmnS0878M-29" value="Evaluate Classifiers" style="endArrow=classic;html=1;rounded=0;entryX=0.5;entryY=0;entryDx=0;entryDy=0;exitX=0.5;exitY=1;exitDx=0;exitDy=0;" parent="1" source="dyJtSoeSL_ZsTX8n-u71-2" target="ALUaBosDsO_dmnS0878M-28" edge="1">
          <mxGeometry x="0.7273" y="-70" width="50" height="50" relative="1" as="geometry">
            <mxPoint x="890" y="750" as="sourcePoint" />
            <mxPoint x="422" y="760" as="targetPoint" />
            <mxPoint as="offset" />
          </mxGeometry>
        </mxCell>
        <mxCell id="ALUaBosDsO_dmnS0878M-32" value="Test" style="endArrow=classic;html=1;rounded=0;exitX=1.03;exitY=0.57;exitDx=0;exitDy=0;exitPerimeter=0;entryX=0.25;entryY=1;entryDx=0;entryDy=0;" parent="1" source="ALUaBosDsO_dmnS0878M-8" target="ALUaBosDsO_dmnS0878M-21" edge="1">
          <mxGeometry x="0.028" y="13" width="50" height="50" relative="1" as="geometry">
            <mxPoint x="380" y="630" as="sourcePoint" />
            <mxPoint x="430" y="580" as="targetPoint" />
            <mxPoint as="offset" />
          </mxGeometry>
        </mxCell>
        <mxCell id="ALUaBosDsO_dmnS0878M-34" value="True Labels" style="rounded=0;whiteSpace=wrap;html=1;" parent="1" vertex="1">
          <mxGeometry x="280" y="525" width="120" height="30" as="geometry" />
        </mxCell>
        <mxCell id="ALUaBosDsO_dmnS0878M-35" value="" style="endArrow=classic;html=1;rounded=0;entryX=0;entryY=0.5;entryDx=0;entryDy=0;exitX=1;exitY=0.5;exitDx=0;exitDy=0;" parent="1" source="ALUaBosDsO_dmnS0878M-34" target="ALUaBosDsO_dmnS0878M-23" edge="1">
          <mxGeometry width="50" height="50" relative="1" as="geometry">
            <mxPoint x="380" y="530" as="sourcePoint" />
            <mxPoint x="430" y="480" as="targetPoint" />
          </mxGeometry>
        </mxCell>
        <mxCell id="ALUaBosDsO_dmnS0878M-37" value="True Labels" style="rounded=0;whiteSpace=wrap;html=1;" parent="1" vertex="1">
          <mxGeometry x="280" y="890" width="120" height="30" as="geometry" />
        </mxCell>
        <mxCell id="ALUaBosDsO_dmnS0878M-38" value="" style="endArrow=classic;html=1;rounded=0;exitX=1;exitY=0.5;exitDx=0;exitDy=0;entryX=-0.008;entryY=0.65;entryDx=0;entryDy=0;entryPerimeter=0;" parent="1" target="ALUaBosDsO_dmnS0878M-28" edge="1">
          <mxGeometry width="50" height="50" relative="1" as="geometry">
            <mxPoint x="400" y="904.5" as="sourcePoint" />
            <mxPoint x="790" y="905" as="targetPoint" />
          </mxGeometry>
        </mxCell>
        <mxCell id="ALUaBosDsO_dmnS0878M-39" value="Test" style="endArrow=classic;html=1;rounded=0;exitX=1;exitY=0.5;exitDx=0;exitDy=0;entryX=0.25;entryY=1;entryDx=0;entryDy=0;" parent="1" source="ALUaBosDsO_dmnS0878M-13" target="ALUaBosDsO_dmnS0878M-26" edge="1">
          <mxGeometry x="-0.0443" y="19" width="50" height="50" relative="1" as="geometry">
            <mxPoint x="401" y="815" as="sourcePoint" />
            <mxPoint x="830" y="814.5" as="targetPoint" />
            <mxPoint as="offset" />
          </mxGeometry>
        </mxCell>
        <mxCell id="dyJtSoeSL_ZsTX8n-u71-1" value="Test" style="endArrow=classic;html=1;rounded=0;exitX=1.03;exitY=0.57;exitDx=0;exitDy=0;exitPerimeter=0;" edge="1" parent="1" target="ALUaBosDsO_dmnS0878M-18">
          <mxGeometry x="-0.3426" y="18" width="50" height="50" relative="1" as="geometry">
            <mxPoint x="370" y="420" as="sourcePoint" />
            <mxPoint x="667" y="273" as="targetPoint" />
            <mxPoint as="offset" />
          </mxGeometry>
        </mxCell>
        <mxCell id="dyJtSoeSL_ZsTX8n-u71-2" value="Predicted Labels" style="rounded=0;whiteSpace=wrap;html=1;" vertex="1" parent="1">
          <mxGeometry x="830" y="700" width="120" height="30" as="geometry" />
        </mxCell>
        <mxCell id="dyJtSoeSL_ZsTX8n-u71-3" value="Predicted Labels" style="rounded=0;whiteSpace=wrap;html=1;" vertex="1" parent="1">
          <mxGeometry x="840" y="350" width="120" height="30" as="geometry" />
        </mxCell>
      </root>
    </mxGraphModel>
  </diagram>
</mxfile>
